# xmcd CD database file
#
# Track frame offsets:
#	150
#	21665
#	43820
#
# Disc length: 873 seconds
#
# Revision: 0
# Processed by: cddbd v1.5.1PL0 Copyright (c) Steve Scherf et al.
# Submitted via: CDex 1.51
#
DISCID=25036703
DTITLE=彩月 - ねむの木
DYEAR=1900
DGENRE=J-pop
TTITLE0=ねむの木
TTITLE1=Ｒｅｇｉｎａ
TTITLE2=Ｔｈｅ　Ｓｉｌｋ　Ｔｒｅｅ（２ｎｄ　Ｍｉｘ）
EXTD=
EXTT0=
EXTT1=
EXTT2=
PLAYORDER=
